solid zeeho_vci_case_v3_type2_cap
  facet normal 0 0 -1
    outer loop
      vertex -6.4 -1.7 -1.7
      vertex -5 32.3 -1.7
      vertex -5 -1.7 -1.7
    endloop
  endfacet
  facet normal 0 0 -1
    outer loop
      vertex -6.4 -1.7 -1.7
      vertex -6.4 32.3 -1.7
      vertex -5 32.3 -1.7
    endloop
  endfacet
  facet normal 0 0 1
    outer loop
      vertex -6.4 -1.7 23.799999999999997
      vertex -5 -1.7 23.799999999999997
      vertex -5 32.3 23.799999999999997
    endloop
  endfacet
  facet normal 0 0 1
    outer loop
      vertex -6.4 -1.7 23.799999999999997
      vertex -5 32.3 23.799999999999997
      vertex -6.4 32.3 23.799999999999997
    endloop
  endfacet
  facet normal 0 -1 0
    outer loop
      vertex -6.4 -1.7 -1.7
      vertex -5 -1.7 -1.7
      vertex -5 -1.7 23.799999999999997
    endloop
  endfacet
  facet normal 0 -1 0
    outer loop
      vertex -6.4 -1.7 -1.7
      vertex -5 -1.7 23.799999999999997
      vertex -6.4 -1.7 23.799999999999997
    endloop
  endfacet
  facet normal 0 1 0
    outer loop
      vertex -6.4 32.3 -1.7
      vertex -6.4 32.3 23.799999999999997
      vertex -5 32.3 23.799999999999997
    endloop
  endfacet
  facet normal 0 1 0
    outer loop
      vertex -6.4 32.3 -1.7
      vertex -5 32.3 23.799999999999997
      vertex -5 32.3 -1.7
    endloop
  endfacet
  facet normal -1 0 0
    outer loop
      vertex -6.4 -1.7 -1.7
      vertex -6.4 -1.7 23.799999999999997
      vertex -6.4 32.3 23.799999999999997
    endloop
  endfacet
  facet normal -1 0 0
    outer loop
      vertex -6.4 -1.7 -1.7
      vertex -6.4 32.3 23.799999999999997
      vertex -6.4 32.3 -1.7
    endloop
  endfacet
  facet normal 1 0 0
    outer loop
      vertex -5 -1.7 -1.7
      vertex -5 32.3 -1.7
      vertex -5 32.3 23.799999999999997
    endloop
  endfacet
  facet normal 1 0 0
    outer loop
      vertex -5 -1.7 -1.7
      vertex -5 32.3 23.799999999999997
      vertex -5 -1.7 23.799999999999997
    endloop
  endfacet
  facet normal 0 0 -1
    outer loop
      vertex -5 -1.7 -1.7
      vertex 8 -0.30000000000000004 -1.7
      vertex 8 -1.7 -1.7
    endloop
  endfacet
  facet normal 0 0 -1
    outer loop
      vertex -5 -1.7 -1.7
      vertex -5 -0.30000000000000004 -1.7
      vertex 8 -0.30000000000000004 -1.7
    endloop
  endfacet
  facet normal 0 0 1
    outer loop
      vertex -5 -1.7 23.799999999999997
      vertex 8 -1.7 23.799999999999997
      vertex 8 -0.30000000000000004 23.799999999999997
    endloop
  endfacet
  facet normal 0 0 1
    outer loop
      vertex -5 -1.7 23.799999999999997
      vertex 8 -0.30000000000000004 23.799999999999997
      vertex -5 -0.30000000000000004 23.799999999999997
    endloop
  endfacet
  facet normal 0 -1 0
    outer loop
      vertex -5 -1.7 -1.7
      vertex 8 -1.7 -1.7
      vertex 8 -1.7 23.799999999999997
    endloop
  endfacet
  facet normal 0 -1 0
    outer loop
      vertex -5 -1.7 -1.7
      vertex 8 -1.7 23.799999999999997
      vertex -5 -1.7 23.799999999999997
    endloop
  endfacet
  facet normal 0 1 0
    outer loop
      vertex -5 -0.30000000000000004 -1.7
      vertex -5 -0.30000000000000004 23.799999999999997
      vertex 8 -0.30000000000000004 23.799999999999997
    endloop
  endfacet
  facet normal 0 1 0
    outer loop
      vertex -5 -0.30000000000000004 -1.7
      vertex 8 -0.30000000000000004 23.799999999999997
      vertex 8 -0.30000000000000004 -1.7
    endloop
  endfacet
  facet normal -1 0 0
    outer loop
      vertex -5 -1.7 -1.7
      vertex -5 -1.7 23.799999999999997
      vertex -5 -0.30000000000000004 23.799999999999997
    endloop
  endfacet
  facet normal -1 0 0
    outer loop
      vertex -5 -1.7 -1.7
      vertex -5 -0.30000000000000004 23.799999999999997
      vertex -5 -0.30000000000000004 -1.7
    endloop
  endfacet
  facet normal 1 0 0
    outer loop
      vertex 8 -1.7 -1.7
      vertex 8 -0.30000000000000004 -1.7
      vertex 8 -0.30000000000000004 23.799999999999997
    endloop
  endfacet
  facet normal 1 0 0
    outer loop
      vertex 8 -1.7 -1.7
      vertex 8 -0.30000000000000004 23.799999999999997
      vertex 8 -1.7 23.799999999999997
    endloop
  endfacet
  facet normal 0 0 -1
    outer loop
      vertex -5 30.9 -1.7
      vertex 8 32.3 -1.7
      vertex 8 30.9 -1.7
    endloop
  endfacet
  facet normal 0 0 -1
    outer loop
      vertex -5 30.9 -1.7
      vertex -5 32.3 -1.7
      vertex 8 32.3 -1.7
    endloop
  endfacet
  facet normal 0 0 1
    outer loop
      vertex -5 30.9 23.799999999999997
      vertex 8 30.9 23.799999999999997
      vertex 8 32.3 23.799999999999997
    endloop
  endfacet
  facet normal 0 0 1
    outer loop
      vertex -5 30.9 23.799999999999997
      vertex 8 32.3 23.799999999999997
      vertex -5 32.3 23.799999999999997
    endloop
  endfacet
  facet normal 0 -1 0
    outer loop
      vertex -5 30.9 -1.7
      vertex 8 30.9 -1.7
      vertex 8 30.9 23.799999999999997
    endloop
  endfacet
  facet normal 0 -1 0
    outer loop
      vertex -5 30.9 -1.7
      vertex 8 30.9 23.799999999999997
      vertex -5 30.9 23.799999999999997
    endloop
  endfacet
  facet normal 0 1 0
    outer loop
      vertex -5 32.3 -1.7
      vertex -5 32.3 23.799999999999997
      vertex 8 32.3 23.799999999999997
    endloop
  endfacet
  facet normal 0 1 0
    outer loop
      vertex -5 32.3 -1.7
      vertex 8 32.3 23.799999999999997
      vertex 8 32.3 -1.7
    endloop
  endfacet
  facet normal -1 0 0
    outer loop
      vertex -5 30.9 -1.7
      vertex -5 30.9 23.799999999999997
      vertex -5 32.3 23.799999999999997
    endloop
  endfacet
  facet normal -1 0 0
    outer loop
      vertex -5 30.9 -1.7
      vertex -5 32.3 23.799999999999997
      vertex -5 32.3 -1.7
    endloop
  endfacet
  facet normal 1 0 0
    outer loop
      vertex 8 30.9 -1.7
      vertex 8 32.3 -1.7
      vertex 8 32.3 23.799999999999997
    endloop
  endfacet
  facet normal 1 0 0
    outer loop
      vertex 8 30.9 -1.7
      vertex 8 32.3 23.799999999999997
      vertex 8 30.9 23.799999999999997
    endloop
  endfacet
  facet normal 0 0 -1
    outer loop
      vertex -5 -0.30000000000000004 -1.7
      vertex 8 30.9 -1.7
      vertex 8 -0.30000000000000004 -1.7
    endloop
  endfacet
  facet normal 0 0 -1
    outer loop
      vertex -5 -0.30000000000000004 -1.7
      vertex -5 30.9 -1.7
      vertex 8 30.9 -1.7
    endloop
  endfacet
  facet normal 0 0 1
    outer loop
      vertex -5 -0.30000000000000004 -0.30000000000000004
      vertex 8 -0.30000000000000004 -0.30000000000000004
      vertex 8 30.9 -0.30000000000000004
    endloop
  endfacet
  facet normal 0 0 1
    outer loop
      vertex -5 -0.30000000000000004 -0.30000000000000004
      vertex 8 30.9 -0.30000000000000004
      vertex -5 30.9 -0.30000000000000004
    endloop
  endfacet
  facet normal 0 -1 0
    outer loop
      vertex -5 -0.30000000000000004 -1.7
      vertex 8 -0.30000000000000004 -1.7
      vertex 8 -0.30000000000000004 -0.30000000000000004
    endloop
  endfacet
  facet normal 0 -1 0
    outer loop
      vertex -5 -0.30000000000000004 -1.7
      vertex 8 -0.30000000000000004 -0.30000000000000004
      vertex -5 -0.30000000000000004 -0.30000000000000004
    endloop
  endfacet
  facet normal 0 1 0
    outer loop
      vertex -5 30.9 -1.7
      vertex -5 30.9 -0.30000000000000004
      vertex 8 30.9 -0.30000000000000004
    endloop
  endfacet
  facet normal 0 1 0
    outer loop
      vertex -5 30.9 -1.7
      vertex 8 30.9 -0.30000000000000004
      vertex 8 30.9 -1.7
    endloop
  endfacet
  facet normal -1 0 0
    outer loop
      vertex -5 -0.30000000000000004 -1.7
      vertex -5 -0.30000000000000004 -0.30000000000000004
      vertex -5 30.9 -0.30000000000000004
    endloop
  endfacet
  facet normal -1 0 0
    outer loop
      vertex -5 -0.30000000000000004 -1.7
      vertex -5 30.9 -0.30000000000000004
      vertex -5 30.9 -1.7
    endloop
  endfacet
  facet normal 1 0 0
    outer loop
      vertex 8 -0.30000000000000004 -1.7
      vertex 8 30.9 -1.7
      vertex 8 30.9 -0.30000000000000004
    endloop
  endfacet
  facet normal 1 0 0
    outer loop
      vertex 8 -0.30000000000000004 -1.7
      vertex 8 30.9 -0.30000000000000004
      vertex 8 -0.30000000000000004 -0.30000000000000004
    endloop
  endfacet
  facet normal 0 0 -1
    outer loop
      vertex -5 -0.30000000000000004 22.4
      vertex 8 30.9 22.4
      vertex 8 -0.30000000000000004 22.4
    endloop
  endfacet
  facet normal 0 0 -1
    outer loop
      vertex -5 -0.30000000000000004 22.4
      vertex -5 30.9 22.4
      vertex 8 30.9 22.4
    endloop
  endfacet
  facet normal 0 0 1
    outer loop
      vertex -5 -0.30000000000000004 23.799999999999997
      vertex 8 -0.30000000000000004 23.799999999999997
      vertex 8 30.9 23.799999999999997
    endloop
  endfacet
  facet normal 0 0 1
    outer loop
      vertex -5 -0.30000000000000004 23.799999999999997
      vertex 8 30.9 23.799999999999997
      vertex -5 30.9 23.799999999999997
    endloop
  endfacet
  facet normal 0 -1 0
    outer loop
      vertex -5 -0.30000000000000004 22.4
      vertex 8 -0.30000000000000004 22.4
      vertex 8 -0.30000000000000004 23.799999999999997
    endloop
  endfacet
  facet normal 0 -1 0
    outer loop
      vertex -5 -0.30000000000000004 22.4
      vertex 8 -0.30000000000000004 23.799999999999997
      vertex -5 -0.30000000000000004 23.799999999999997
    endloop
  endfacet
  facet normal 0 1 0
    outer loop
      vertex -5 30.9 22.4
      vertex -5 30.9 23.799999999999997
      vertex 8 30.9 23.799999999999997
    endloop
  endfacet
  facet normal 0 1 0
    outer loop
      vertex -5 30.9 22.4
      vertex 8 30.9 23.799999999999997
      vertex 8 30.9 22.4
    endloop
  endfacet
  facet normal -1 0 0
    outer loop
      vertex -5 -0.30000000000000004 22.4
      vertex -5 -0.30000000000000004 23.799999999999997
      vertex -5 30.9 23.799999999999997
    endloop
  endfacet
  facet normal -1 0 0
    outer loop
      vertex -5 -0.30000000000000004 22.4
      vertex -5 30.9 23.799999999999997
      vertex -5 30.9 22.4
    endloop
  endfacet
  facet normal 1 0 0
    outer loop
      vertex 8 -0.30000000000000004 22.4
      vertex 8 30.9 22.4
      vertex 8 30.9 23.799999999999997
    endloop
  endfacet
  facet normal 1 0 0
    outer loop
      vertex 8 -0.30000000000000004 22.4
      vertex 8 30.9 23.799999999999997
      vertex 8 -0.30000000000000004 23.799999999999997
    endloop
  endfacet
endsolid zeeho_vci_case_v3_type2_cap
